<?xml version="1.0" encoding="utf-8"?>
<svg version="1.1" width="470px" height="153px" preserveAspectRatio="none" viewBox="0 0 470 153" xmlns="http://www.w3.org/2000/svg">
  <defs>
    <clipPath id="clippath0" transform="">
      <path d="M 0 153 L 470 153 L 470 0 L 0 0 Z" style="fill: none; clip-rule: nonzero;"/>
    </clipPath>
    <clipPath id="clippath1" transform="">
      <path d="M 61.54 93.835 C 44.818 90.994 28.855 86.791 13.768 81.374 L 13.768 81.374 L 47.453 55.623 C 86.524 84.244 134.775 88.962 179.694 91.464 L 179.694 91.464 C 151.303 97.027 124.007 98.956 98.152 97.752 L 98.152 97.752 L 80.445 135.085 Z" style="fill: none; clip-rule: nonzero;"/>
    </clipPath>
    <clipPath id="clippath2" transform="">
      <path d="M 0 153 L 470 153 L 470 0 L 0 0 Z" style="fill: none; clip-rule: nonzero;"/>
    </clipPath>
    <clipPath id="clippath3" transform="">
      <path d="M 132.005 130.337 L 120.47 130.243 L 129.997 124.16 L 126.115 113.293 L 135.251 120.344 L 144.388 113.293 L 140.505 124.16 L 150.035 130.243 L 138.498 130.337 L 135.251 141.41 Z" style="fill: none; clip-rule: nonzero;"/>
    </clipPath>
  </defs>
  <g transform="matrix(1, 0, 0, -1, 0, 153)">
    <g transform="">
      <path d="M 0 153 L 470 153 L 470 0 L 0 0 Z" style="fill: none;"/>
    </g>
    <g style="clip-path: url(#clippath0);">
      <g transform="translate(80.4082 32.708)">
        <path d="M 0 0 C -20.571 0 -37.694 -10.56 -57.145 -22.987 C -31.991 16.786 9.193 35.028 28.445 38.945 L 57.429 -23.001 C 40.032 -11.399 19.215 0 0 0" style="fill-opacity: 1; fill: rgb(255, 255, 255);"/>
      </g>
    </g>
    <g transform="">
      <path d="M 61.54 93.835 C 44.818 90.994 28.855 86.791 13.768 81.374 L 13.768 81.374 L 47.453 55.623 C 86.524 84.244 134.775 88.962 179.694 91.464 L 179.694 91.464 C 151.303 97.027 124.007 98.956 98.152 97.752 L 98.152 97.752 L 80.445 135.085 Z" style="fill: none;"/>
    </g>
    <g style="clip-path: url(#clippath1);">
      <g transform="matrix(278.6822815 0 0 -278.6822815 0.7763672 95.3540039)">
        <rect x="-0.0027858505959590402" y="-0.20685203160287757" width="1.6865083688501383" height="0.5490122987958961" style="fill: rgb(255, 255, 255);"/>
      </g>
    </g>
    <g transform="">
      <path d="M 0 153 L 470 153 L 470 0 L 0 0 Z" style="fill: none;"/>
    </g>
    <g style="clip-path: url(#clippath2);">
      <g transform="translate(139.6865 51.959)">
        <path d="M 0 0 C 2.077 -1.491 6.019 -3.196 8.523 -3.196 C 11.879 -3.196 14.116 -1.812 14.116 0.267 C 14.116 2.441 11.644 3.857 8.363 5.052 C 4.274 6.539 0 8.722 0 13.051 C 0 17.379 3.449 19.709 9.854 19.709 C 12.198 19.709 14.968 19.017 16.779 18.058 L 16.779 13.797 C 15.341 15.234 12.731 16.513 9.854 16.513 C 6.392 16.513 4.528 15.301 4.528 13.051 C 4.528 11.421 6.405 10.56 9.801 9.324 C 14.046 7.779 18.644 5.699 18.644 0.532 C 18.644 -3.622 14.595 -6.393 8.523 -6.393 C 5.859 -6.393 1.651 -5.327 0 -4.422 Z" style="fill-opacity: 1; fill: rgb(255, 255, 255);"/>
      </g>
    </g>
    <g style="clip-path: url(#clippath2);">
      <g transform="translate(173.8823 49.0293)">
        <path d="M 0 0 C 4.059 0 6.765 3.835 6.765 9.588 C 6.765 15.341 4.059 19.177 0 19.177 C -4.059 19.177 -6.765 15.341 -6.765 9.588 C -6.765 3.835 -4.059 0 0 0 M 0 22.639 C 6.872 22.639 11.453 17.419 11.453 9.588 C 11.453 1.758 6.872 -3.463 0 -3.463 C -6.872 -3.463 -11.453 1.758 -11.453 9.588 C -11.453 17.419 -6.872 22.639 0 22.639" style="fill-opacity: 1; fill: rgb(255, 255, 255);"/>
      </g>
    </g>
    <g style="clip-path: url(#clippath2);">
      <g transform="translate(204.3481 53.5566)">
        <path d="M 0 0 L 0 17.845 L 4.528 17.845 L 4.528 0 C 4.528 -4.794 0.799 -7.99 -4.794 -7.99 C -10.387 -7.99 -14.116 -4.794 -14.116 0 L -14.116 17.845 L -9.588 17.845 L -9.588 0 C -9.588 -2.717 -7.67 -4.527 -4.794 -4.527 C -1.917 -4.527 0 -2.717 0 0" style="fill-opacity: 1; fill: rgb(255, 255, 255);"/>
      </g>
    </g>
    <g style="clip-path: url(#clippath2);">
      <g transform="translate(232.6836 71.4014)">
        <path d="M 0 0 L 0 -3.462 L -7.458 -3.462 L -7.458 -25.568 L -11.985 -25.568 L -11.985 -3.462 L -19.443 -3.462 L -19.443 0 Z" style="fill-opacity: 1; fill: rgb(255, 255, 255);"/>
      </g>
    </g>
    <g style="clip-path: url(#clippath2);">
      <g transform="translate(237.582 71.4014)">
        <path d="M 0 0 L 4.527 0 L 4.527 -10.653 L 14.648 -10.653 L 14.648 0 L 19.176 0 L 19.176 -25.568 L 14.648 -25.568 L 14.648 -13.85 L 4.527 -13.85 L 4.527 -25.568 L 0 -25.568 Z" style="fill-opacity: 1; fill: rgb(255, 255, 255);"/>
      </g>
    </g>
    <g style="clip-path: url(#clippath2);">
      <g transform="translate(263.5195 71.4014)">
        <path d="M 0 0 L 15.98 0 L 15.98 -3.462 L 4.528 -3.462 L 4.528 -10.653 L 13.85 -10.653 L 13.85 -13.85 L 4.528 -13.85 L 4.528 -22.105 L 15.98 -22.105 L 15.98 -25.568 L 0 -25.568 Z" style="fill-opacity: 1; fill: rgb(255, 255, 255);"/>
      </g>
    </g>
    <g style="clip-path: url(#clippath2);">
      <g transform="translate(292.9209 60.2158)">
        <path d="M 0 0 C 3.164 0 5.273 1.811 5.273 4.527 C 5.273 6.604 3.164 7.99 0 7.99 L -3.729 7.99 L -3.729 0 Z M -8.257 11.186 L 0 11.186 C 5.721 11.186 9.535 8.522 9.535 4.527 C 9.535 1.731 7.054 -0.657 3.563 -1.598 C 6.816 -2.455 9.179 -4.562 9.535 -7.458 L 10.387 -14.383 L 5.753 -14.383 L 4.954 -7.458 C 4.62 -4.57 2.504 -3.196 -1.013 -3.196 L -3.729 -3.196 L -3.729 -14.383 L -8.257 -14.383 Z" style="fill-opacity: 1; fill: rgb(255, 255, 255);"/>
      </g>
    </g>
    <g style="clip-path: url(#clippath2);">
      <g transform="translate(308.4727 71.4014)">
        <path d="M 0 0 L 3.729 0 L 15.714 -17.937 L 15.714 0 L 19.177 0 L 19.177 -25.568 L 15.448 -25.568 L 3.463 -7.951 L 3.463 -25.568 L 0 -25.568 Z" style="fill-opacity: 1; fill: rgb(255, 255, 255);"/>
      </g>
    </g>
    <g style="clip-path: url(#clippath2);">
      <g transform="translate(344.1045 51.959)">
        <path d="M 0 0 C 2.077 -1.491 6.02 -3.196 8.522 -3.196 C 11.879 -3.196 14.116 -1.812 14.116 0.267 C 14.116 2.441 11.645 3.857 8.363 5.052 C 4.274 6.539 0 8.722 0 13.051 C 0 17.379 3.449 19.709 9.854 19.709 C 12.198 19.709 14.969 19.017 16.779 18.058 L 16.779 13.797 C 15.341 15.234 12.731 16.513 9.854 16.513 C 6.392 16.513 4.527 15.301 4.527 13.051 C 4.527 11.421 6.405 10.56 9.802 9.324 C 14.046 7.779 18.644 5.699 18.644 0.532 C 18.644 -3.622 14.596 -6.393 8.522 -6.393 C 5.859 -6.393 1.651 -5.327 0 -4.422 Z" style="fill-opacity: 1; fill: rgb(255, 255, 255);"/>
      </g>
    </g>
    <g style="clip-path: url(#clippath2);">
      <g transform="translate(384.6934 71.4014)">
        <path d="M 0 0 L 0 -3.462 L -7.458 -3.462 L -7.458 -25.568 L -11.986 -25.568 L -11.986 -3.462 L -19.443 -3.462 L -19.443 0 Z" style="fill-opacity: 1; fill: rgb(255, 255, 255);"/>
      </g>
    </g>
    <g style="clip-path: url(#clippath2);">
      <g transform="translate(400.5732 54.1963)">
        <path d="M 0 0 L -4.163 13.956 L -8.327 0 Z M -6.507 17.205 L -1.819 17.205 L 7.289 -8.363 L 2.495 -8.363 L 0.906 -3.036 L -9.232 -3.036 L -10.822 -8.363 L -15.616 -8.363 Z" style="fill-opacity: 1; fill: rgb(255, 255, 255);"/>
      </g>
    </g>
    <g style="clip-path: url(#clippath2);">
      <g transform="translate(420.75 60.2158)">
        <path d="M 0 0 C 3.164 0 5.273 1.811 5.273 4.527 C 5.273 6.604 3.164 7.99 0 7.99 L -3.729 7.99 L -3.729 0 Z M -8.257 11.186 L 0 11.186 C 5.721 11.186 9.535 8.522 9.535 4.527 C 9.535 1.731 7.054 -0.657 3.563 -1.598 C 6.816 -2.455 9.179 -4.562 9.535 -7.458 L 10.387 -14.383 L 5.753 -14.383 L 4.954 -7.458 C 4.62 -4.57 2.504 -3.196 -1.013 -3.196 L -3.729 -3.196 L -3.729 -14.383 L -8.257 -14.383 Z" style="fill-opacity: 1; fill: rgb(255, 255, 255);"/>
      </g>
    </g>
    <g style="clip-path: url(#clippath2);">
      <g transform="translate(435.5029 51.959)">
        <path d="M 0 0 C 2.077 -1.491 6.02 -3.196 8.522 -3.196 C 11.879 -3.196 14.116 -1.812 14.116 0.267 C 14.116 2.441 11.645 3.857 8.363 5.052 C 4.274 6.539 0 8.722 0 13.051 C 0 17.379 3.449 19.709 9.854 19.709 C 12.198 19.709 14.969 19.017 16.779 18.058 L 16.779 13.797 C 15.341 15.234 12.731 16.513 9.854 16.513 C 6.392 16.513 4.527 15.301 4.527 13.051 C 4.527 11.421 6.405 10.56 9.802 9.324 C 14.046 7.779 18.644 5.699 18.644 0.532 C 18.644 -3.622 14.596 -6.393 8.522 -6.393 C 5.859 -6.393 1.651 -5.327 0 -4.422 Z" style="fill-opacity: 1; fill: rgb(255, 255, 255);"/>
      </g>
    </g>
    <g style="clip-path: url(#clippath2);">
      <g transform="translate(153.9219 39.0488)">
        <path d="M 0 0 L 1.466 0 L 1.466 -4.623 L 6.202 -4.623 L 6.202 0 L 7.668 0 L 7.668 -10.825 L 6.202 -10.825 L 6.202 -5.751 L 1.466 -5.751 L 1.466 -10.825 L 0 -10.825 Z" style="fill-opacity: 1; fill: rgb(255, 255, 255);"/>
      </g>
    </g>
    <g style="clip-path: url(#clippath2);">
      <g transform="translate(171.5166 29.2383)">
        <path d="M 0 0 C 1.854 0 3.09 1.76 3.09 4.398 C 3.09 7.036 1.854 8.796 0 8.796 C -1.854 8.796 -3.09 7.036 -3.09 4.398 C -3.09 1.76 -1.854 0 0 0 M 0 9.923 C 2.774 9.923 4.624 7.713 4.624 4.398 C 4.624 1.083 2.774 -1.127 0 -1.127 C -2.774 -1.127 -4.623 1.083 -4.623 4.398 C -4.623 7.713 -2.774 9.923 0 9.923" style="fill-opacity: 1; fill: rgb(255, 255, 255);"/>
      </g>
    </g>
    <g style="clip-path: url(#clippath2);">
      <g transform="translate(181.4434 39.0488)">
        <path d="M 0 0 L 1.466 0 L 1.466 -9.697 L 5.977 -9.697 L 5.977 -10.825 L 0 -10.825 Z" style="fill-opacity: 1; fill: rgb(255, 255, 255);"/>
      </g>
    </g>
    <g style="clip-path: url(#clippath2);">
      <g transform="">
        <path d="M 192.498 39.049 L 193.964 39.049 L 193.964 28.224 L 192.498 28.224 Z" style="fill-opacity: 1; fill: rgb(255, 255, 255);"/>
      </g>
      <g transform="translate(202.6704 29.3516)">
        <path d="M 0 0 C 2.314 0 3.856 1.714 3.856 4.285 C 3.856 6.855 2.314 8.569 0 8.569 L -1.376 8.569 L -1.376 0 Z M -2.842 9.697 L 0.248 9.697 C 3.333 9.697 5.39 7.532 5.39 4.285 C 5.39 1.037 3.333 -1.128 0.248 -1.128 L -2.842 -1.128 Z" style="fill-opacity: 1; fill: rgb(255, 255, 255);"/>
      </g>
      <g transform="translate(219.1318 31.6064)">
        <path d="M 0 0 L -2.046 6.36 L -4.093 0 Z M -1.302 7.442 L 2.577 -3.383 L 1.088 -3.383 L 0.327 -1.06 L -4.442 -1.06 L -5.181 -3.383 L -6.669 -3.383 L -2.791 7.442 Z" style="fill-opacity: 1; fill: rgb(255, 255, 255);"/>
      </g>
      <g transform="translate(228.0264 32.4834)">
        <path d="M 0 0 L -3.653 6.565 L -1.917 6.565 L 0.744 0.882 L 3.383 6.565 L 5.142 6.565 L 1.466 0 L 1.466 -4.26 L 0 -4.26 Z" style="fill-opacity: 1; fill: rgb(255, 255, 255);"/>
      </g>
      <g transform="translate(248.7119 33.1855)">
        <path d="M 0 0 C 1.61 0 2.684 0.992 2.684 2.48 C 2.684 3.834 1.61 4.735 0 4.735 L -1.669 4.735 L -1.669 0 Z M -3.135 5.863 L -0.09 5.863 C 2.481 5.863 4.195 4.51 4.195 2.48 C 4.195 0.315 2.436 -1.128 -0.203 -1.128 L -1.669 -1.128 L -1.669 -4.962 L -3.135 -4.962 Z" style="fill-opacity: 1; fill: rgb(255, 255, 255);"/>
      </g>
      <g transform="translate(263.0986 31.6064)">
        <path d="M 0 0 L -2.046 6.36 L -4.093 0 Z M -1.302 7.442 L 2.577 -3.383 L 1.089 -3.383 L 0.326 -1.06 L -4.441 -1.06 L -5.181 -3.383 L -6.67 -3.383 L -2.79 7.442 Z" style="fill-opacity: 1; fill: rgb(255, 255, 255);"/>
      </g>
      <g transform="translate(273.9111 34.2002)">
        <path d="M 0 0 C 1.475 0 2.458 0.812 2.458 2.029 C 2.458 3.044 1.475 3.721 0 3.721 L -1.805 3.721 L -1.805 0 Z M -3.271 4.849 L 0 4.849 C 2.286 4.849 3.812 3.721 3.812 2.029 C 3.812 0.821 2.806 -0.183 1.406 -0.571 C 2.734 -0.939 3.546 -1.827 3.698 -3.045 L 4.06 -5.977 L 2.594 -5.977 L 2.255 -3.045 C 2.109 -1.782 1.195 -1.128 -0.316 -1.128 L -1.805 -1.128 L -1.805 -5.977 L -3.271 -5.977 Z" style="fill-opacity: 1; fill: rgb(255, 255, 255);"/>
      </g>
      <g transform="translate(288.7842 39.0488)">
        <path d="M 0 0 L 1.773 0 L -2.442 -5.297 L 2.157 -10.825 L 0.165 -10.825 L -3.774 -5.303 Z M -5.511 0 L -4.045 0 L -4.045 -10.825 L -5.511 -10.825 Z" style="fill-opacity: 1; fill: rgb(255, 255, 255);"/>
      </g>
      <g transform="translate(306.1924 29.3516)">
        <path d="M 0 0 C 2.313 0 3.856 1.714 3.856 4.285 C 3.856 6.855 2.313 8.569 0 8.569 L -1.376 8.569 L -1.376 0 Z M -2.842 9.697 L 0.248 9.697 C 3.333 9.697 5.39 7.532 5.39 4.285 C 5.39 1.037 3.333 -1.128 0.248 -1.128 L -2.842 -1.128 Z" style="fill-opacity: 1; fill: rgb(255, 255, 255);"/>
      </g>
      <g transform="translate(322.6367 31.4941)">
        <path d="M 0 0 L 0 7.555 L 1.466 7.555 L 1.466 0 C 1.466 -2.03 -0.022 -3.383 -2.255 -3.383 C -4.488 -3.383 -5.977 -2.03 -5.977 0 L -5.977 7.555 L -4.511 7.555 L -4.511 0 C -4.511 -1.354 -3.608 -2.256 -2.255 -2.256 C -0.902 -2.256 0 -1.354 0 0" style="fill-opacity: 1; fill: rgb(255, 255, 255);"/>
      </g>
      <g transform="translate(329.7441 39.0488)">
        <path d="M 0 0 L 1.015 0 L 6.314 -8.293 L 6.314 0 L 7.442 0 L 7.442 -10.825 L 6.428 -10.825 L 1.128 -2.645 L 1.128 -10.825 L 0 -10.825 Z" style="fill-opacity: 1; fill: rgb(255, 255, 255);"/>
      </g>
      <g transform="translate(342.7158 30.4561)">
        <path d="M 0 0 C 1.342 -0.964 2.277 -1.218 3.27 -1.218 C 4.731 -1.218 5.751 -0.541 5.751 0.474 C 5.751 1.309 5.186 1.986 3.338 2.658 C 0.734 3.606 0 4.736 0 5.887 C 0 7.578 1.533 8.705 3.834 8.705 C 4.781 8.705 5.632 8.487 6.54 8.007 L 6.54 6.563 C 5.683 7.353 4.668 7.578 3.834 7.578 C 2.413 7.578 1.466 6.901 1.466 5.887 C 1.466 5.233 2.111 4.693 3.755 4.096 C 6.412 3.128 7.217 2.217 7.217 0.587 C 7.217 -1.173 5.638 -2.345 3.27 -2.345 C 2.12 -2.345 1.021 -2.071 0 -1.511 Z" style="fill-opacity: 1; fill: rgb(255, 255, 255);"/>
      </g>
      <g transform="translate(356.7012 29.3516)">
        <path d="M 0 0 L 1.895 0 C 3.329 0 4.285 0.722 4.285 1.804 C 4.285 2.986 3.174 3.946 1.805 3.946 L 0 3.946 Z M 1.466 5.074 C 2.773 5.074 3.834 5.933 3.834 6.991 C 3.834 7.938 2.887 8.569 1.466 8.569 L 0 8.569 L 0 5.074 Z M -1.466 9.697 L 1.466 9.697 C 3.699 9.697 5.187 8.615 5.187 6.991 C 5.187 5.869 4.194 4.912 2.806 4.551 C 4.557 4.264 5.864 3.142 5.864 1.804 C 5.864 0.045 4.285 -1.128 1.917 -1.128 L -1.466 -1.128 Z" style="fill-opacity: 1; fill: rgb(255, 255, 255);"/>
      </g>
      <g transform="translate(371.8154 29.2383)">
        <path d="M 0 0 C 1.854 0 3.09 1.76 3.09 4.398 C 3.09 7.036 1.854 8.796 0 8.796 C -1.854 8.796 -3.09 7.036 -3.09 4.398 C -3.09 1.76 -1.854 0 0 0 M 0 9.923 C 2.774 9.923 4.623 7.713 4.623 4.398 C 4.623 1.083 2.774 -1.127 0 -1.127 C -2.774 -1.127 -4.623 1.083 -4.623 4.398 C -4.623 7.713 -2.774 9.923 0 9.923" style="fill-opacity: 1; fill: rgb(255, 255, 255);"/>
      </g>
      <g transform="translate(385.0127 34.2002)">
        <path d="M 0 0 C 1.475 0 2.458 0.812 2.458 2.029 C 2.458 3.044 1.475 3.721 0 3.721 L -1.805 3.721 L -1.805 0 Z M -3.271 4.849 L 0 4.849 C 2.286 4.849 3.812 3.721 3.812 2.029 C 3.812 0.821 2.806 -0.183 1.406 -0.571 C 2.734 -0.939 3.546 -1.827 3.698 -3.045 L 4.06 -5.977 L 2.594 -5.977 L 2.255 -3.045 C 2.109 -1.782 1.195 -1.128 -0.316 -1.128 L -1.805 -1.128 L -1.805 -5.977 L -3.271 -5.977 Z" style="fill-opacity: 1; fill: rgb(255, 255, 255);"/>
      </g>
      <g transform="translate(398.4346 29.2383)">
        <path d="M 0 0 C 1.854 0 3.09 1.76 3.09 4.398 C 3.09 7.036 1.854 8.796 0 8.796 C -1.854 8.796 -3.09 7.036 -3.09 4.398 C -3.09 1.76 -1.854 0 0 0 M 0 9.923 C 2.774 9.923 4.623 7.713 4.623 4.398 C 4.623 1.083 2.774 -1.127 0 -1.127 C -2.774 -1.127 -4.623 1.083 -4.623 4.398 C -4.623 7.713 -2.774 9.923 0 9.923" style="fill-opacity: 1; fill: rgb(255, 255, 255);"/>
      </g>
      <g transform="translate(414.1123 31.4941)">
        <path d="M 0 0 L 0 7.555 L 1.466 7.555 L 1.466 0 C 1.466 -2.03 -0.022 -3.383 -2.255 -3.383 C -4.488 -3.383 -5.977 -2.03 -5.977 0 L -5.977 7.555 L -4.511 7.555 L -4.511 0 C -4.511 -1.354 -3.608 -2.256 -2.255 -2.256 C -0.902 -2.256 0 -1.354 0 0" style="fill-opacity: 1; fill: rgb(255, 255, 255);"/>
      </g>
      <g transform="translate(428.5498 34.0869)">
        <path d="M 0 0 L 0 -5.548 L -0.677 -5.638 C -1.309 -5.818 -2.108 -5.976 -2.887 -5.976 C -5.891 -5.976 -7.894 -3.721 -7.894 -0.338 C -7.894 2.909 -5.846 5.074 -2.774 5.074 C -2.005 5.074 -1.305 4.951 -0.564 4.743 L -0.564 3.233 C -1.188 3.642 -1.803 3.834 -2.549 3.834 C -4.836 3.834 -6.36 2.165 -6.36 -0.338 C -6.36 -2.977 -4.971 -4.735 -2.887 -4.735 C -2.378 -4.735 -1.892 -4.661 -1.466 -4.521 L -1.466 -1.127 L -3.045 -1.127 L -3.045 0 Z" style="fill-opacity: 1; fill: rgb(255, 255, 255);"/>
      </g>
      <g transform="translate(434.124 39.0488)">
        <path d="M 0 0 L 1.466 0 L 1.466 -4.623 L 6.202 -4.623 L 6.202 0 L 7.668 0 L 7.668 -10.825 L 6.202 -10.825 L 6.202 -5.751 L 1.466 -5.751 L 1.466 -10.825 L 0 -10.825 Z" style="fill-opacity: 1; fill: rgb(255, 255, 255);"/>
      </g>
    </g>
    <g transform="">
      <path d="M 132.005 130.337 L 120.47 130.243 L 129.997 124.16 L 126.115 113.293 L 135.251 120.344 L 144.388 113.293 L 140.505 124.16 L 150.035 130.243 L 138.498 130.337 L 135.251 141.41 Z" style="fill: none;"/>
    </g>
    <g style="clip-path: url(#clippath3);">
      <g transform="matrix(29.5644531 0 0 -29.5644531 120.4707031 127.3515625)">
        <rect x="-4.074849708618489" y="-0.8675431070294337" width="15.89746978948851" height="5.175133782535621" style="fill: rgb(255, 255, 255);"/>
      </g>
    </g>
  </g>
</svg>